<svg version="1.1" id="Layer_1" xmlns="http://www.w3.org/2000/svg" xmlns:xlink="http://www.w3.org/1999/xlink" x="0px" y="0px"
	 width="100%" viewBox="0 0 816 1024" enable-background="new 0 0 816 1024" xml:space="preserve">
<path fill="#000000" opacity="1.000000" stroke="none" 
	d="
M546.853394,495.347107 
	C551.619324,514.159180 555.265503,532.719604 556.353821,551.763184 
	C557.706482,575.431396 552.573608,597.749207 543.340820,619.321411 
	C533.031799,643.408264 519.271667,664.974304 498.067200,681.076904 
	C478.920135,695.617004 456.937866,702.599487 433.354950,705.214539 
	C428.397247,705.764282 423.396942,706.023560 418.409027,706.170532 
	C415.573944,706.254089 414.198792,707.127747 414.071106,710.206299 
	C413.460541,724.923279 409.161774,738.366638 399.607758,749.817566 
	C397.531891,752.305603 397.494629,754.681213 398.396484,757.648560 
	C415.014862,812.330017 439.274200,863.349792 469.000763,912.187500 
	C481.727020,933.095459 490.321411,956.717590 490.079956,982.176453 
	C489.981842,992.522888 486.545746,1001.984619 479.980957,1011.806335 
	C473.994812,998.770996 474.497894,984.620483 466.573730,972.191895 
	C463.638458,986.749207 462.372894,1000.468933 458.513794,1014.984985 
	C444.428619,1003.152771 442.195282,987.538391 440.315002,971.094116 
	C435.197876,976.269348 433.203461,982.496399 431.709930,988.838684 
	C430.239899,995.081299 429.288025,1001.445984 427.900208,1008.873291 
	C421.463440,1001.686523 418.473785,994.231323 417.753174,985.784180 
	C416.852203,975.222595 420.772675,965.850647 425.087372,956.580139 
	C429.502960,947.092651 435.039642,938.090759 437.045563,927.574341 
	C438.222809,921.402344 437.449249,916.054504 433.942200,910.531616 
	C409.032532,871.304016 388.002625,830.133484 372.889465,786.087280 
	C370.944946,780.420044 369.269409,774.656372 367.613129,768.896057 
	C366.843750,766.220398 365.600250,764.959290 362.598083,765.603088 
	C359.516541,766.263916 356.344391,766.800537 353.206635,766.829895 
	C348.672821,766.872437 347.723480,769.130676 347.876862,773.175476 
	C348.592834,792.059387 353.748291,809.925049 359.998810,827.553772 
	C369.499237,854.348267 383.169525,879.197144 395.931580,904.470398 
	C397.506073,907.588501 399.065674,910.743286 400.263550,914.015991 
	C402.418457,919.903625 401.023529,923.962646 395.617889,927.208008 
	C392.640076,928.995850 389.441010,930.577515 386.145538,931.648804 
	C353.033478,942.412720 321.180328,956.715515 287.766052,966.609497 
	C283.566528,967.852966 279.504700,969.878113 273.848480,969.864014 
	C278.874664,961.930420 285.256042,956.261475 290.777283,949.771484 
	C281.635590,951.721313 273.041718,955.172485 263.674377,956.028687 
	C270.832153,947.862976 279.480469,941.719910 289.327789,935.715759 
	C277.553436,936.959839 267.194153,940.505249 255.995331,942.864563 
	C256.982544,939.491943 259.252563,938.277832 261.148712,936.814575 
	C275.987427,925.364136 293.285858,919.361023 311.143951,914.910583 
	C326.968231,910.967102 342.968262,907.730408 358.880280,904.135437 
	C360.637085,903.738525 362.515015,903.521179 364.166840,901.989136 
	C363.287323,898.454590 360.775391,895.706726 358.887177,892.653503 
	C338.110443,859.057556 322.571777,823.340820 315.366211,784.322266 
	C313.767517,775.665161 313.011169,766.848389 312.001770,758.089539 
	C311.739685,755.815552 311.018768,754.083313 309.277313,752.483765 
	C294.293671,738.720764 287.903168,721.115662 286.728088,701.261780 
	C285.747742,684.697937 289.348175,668.873596 294.240662,653.183105 
	C297.661560,642.212036 300.917419,631.202515 305.195251,620.522949 
	C305.724945,619.200623 306.606262,617.865173 305.974518,616.056824 
	C305.331390,616.205139 304.632385,616.196350 304.130310,616.506470 
	C276.728241,633.429382 251.704208,652.837097 237.357437,682.817078 
	C228.514374,701.296204 221.926453,720.458618 223.276108,741.429016 
	C224.032028,753.174255 228.031738,764.195190 231.165131,775.405701 
	C231.951370,778.218567 233.084885,780.989624 232.409851,784.240601 
	C221.755554,773.347412 214.346756,760.653381 210.816406,744.217896 
	C206.564514,758.388977 209.435455,771.627808 207.016235,784.443726 
	C197.256546,772.090149 194.677872,757.890259 195.341064,742.647217 
	C188.027390,753.591370 185.445297,766.097107 182.254257,778.512695 
	C179.149612,770.753357 179.386261,762.874512 180.281418,755.050659 
	C183.044220,730.903076 193.836884,709.875549 206.763367,689.907776 
	C216.897354,674.253601 225.723022,657.744690 237.250259,642.991943 
	C253.832993,621.768982 275.377594,606.402344 297.562653,591.799866 
	C307.722534,585.112549 317.960358,578.541260 328.243866,572.045532 
	C331.454712,570.017334 333.799683,567.486145 335.454254,564.041870 
	C342.749023,548.856384 349.775085,533.585327 353.081421,516.913452 
	C353.146088,516.587341 353.312042,516.273926 353.334381,515.947998 
	C353.545044,512.878784 355.352722,508.720947 352.582642,507.089722 
	C349.539917,505.298004 345.547333,507.623718 342.088593,508.637939 
	C340.485962,509.107880 340.444275,510.972748 340.164673,512.450562 
	C339.389587,516.546814 338.538788,520.635742 336.753174,524.431335 
	C335.976501,526.082275 334.981995,527.869141 332.775024,527.671570 
	C330.911896,527.504883 330.100769,525.895752 329.326263,524.382141 
	C327.845001,521.487427 327.725769,518.278015 327.217285,515.171570 
	C326.733551,512.216553 325.369446,510.918274 322.188477,511.061005 
	C316.033142,511.337128 309.856110,511.426300 303.698700,511.240662 
	C300.311676,511.138489 298.908325,512.673828 298.202484,515.661926 
	C297.438507,518.896240 296.815674,522.216370 295.083099,525.119385 
	C292.932281,528.723145 290.391418,528.721985 288.414703,525.043762 
	C286.572754,521.616272 285.870941,517.796082 285.680206,513.963196 
	C285.495056,510.242523 283.776062,508.347351 280.213074,507.319000 
	C273.723206,505.445923 267.274231,503.345612 261.357483,499.056305 
	C275.665192,497.951996 287.546326,491.239258 300.499878,483.677032 
	C293.484528,484.408539 287.697235,485.128143 281.889587,485.595520 
	C264.928711,486.960541 248.563126,484.557129 233.524796,476.346771 
	C219.903809,468.910309 210.979095,457.731628 209.358200,441.781006 
	C208.189743,430.282715 212.107422,420.093536 218.533020,410.860870 
	C230.495758,393.672150 247.676056,383.362366 266.477570,375.364227 
	C287.056458,366.610016 308.749237,362.297363 330.843475,359.866272 
	C334.366699,359.478638 335.670898,358.030182 336.547211,354.952148 
	C339.836212,343.399414 343.639343,332.014648 349.743103,321.585388 
	C351.239044,319.029327 352.297180,315.727875 356.567688,315.056366 
	C357.874695,319.949280 357.141479,324.691986 356.859802,329.406952 
	C356.373322,337.549530 355.922516,345.694702 355.358551,353.831970 
	C355.126190,357.184753 356.305634,358.754242 359.866608,358.655914 
	C369.580719,358.387634 379.189575,359.588959 388.577423,361.941711 
	C392.782867,362.995667 393.772736,361.153290 394.661377,357.815186 
	C397.712982,346.351959 401.678314,335.211578 407.700134,324.937653 
	C409.191742,322.392822 410.183685,319.037354 414.096588,318.365295 
	C416.220215,321.731934 415.217957,325.274414 414.954712,328.613892 
	C413.893799,342.073608 413.402283,355.529114 414.106049,369.026428 
	C414.241394,371.621307 415.272278,373.281494 417.266663,374.845245 
	C431.263794,385.820007 437.212219,400.758636 439.432831,418.014313 
	C441.997864,437.946747 434.047791,453.659851 421.683624,468.090820 
	C407.752197,484.351105 394.830536,501.211243 388.415070,522.161011 
	C383.430878,538.436829 379.438446,554.886658 377.676880,571.843628 
	C377.530121,573.256104 377.823578,574.477173 378.414642,575.689941 
	C383.489288,586.101685 389.591858,595.793213 398.335724,603.568787 
	C409.723938,613.695801 423.303711,612.594482 432.805359,600.732117 
	C441.491577,589.887878 444.146973,576.941040 445.950287,563.574097 
	C446.887146,556.629761 445.691010,552.415100 438.731445,548.685791 
	C429.403168,543.687256 422.024689,535.903931 420.114075,524.586914 
	C418.869537,517.215332 421.898499,510.620117 428.932312,509.409882 
	C456.940155,504.591003 472.914459,484.806763 487.855988,463.503082 
	C491.749969,457.950958 495.525787,452.315948 499.498901,446.510071 
	C501.886505,450.808899 499.336639,461.814178 493.054230,475.968201 
	C488.944977,485.226105 483.293304,493.681915 478.617981,502.672882 
	C492.065491,508.810974 491.792206,515.605469 482.010345,529.621948 
	C482.043365,529.785278 482.018616,530.010254 482.117676,530.103271 
	C492.801239,540.131592 485.680481,551.334595 472.962158,552.781860 
	C467.948608,553.352356 467.312256,555.326050 467.183868,559.661987 
	C466.579834,580.058655 462.164246,599.539673 452.506165,617.713867 
	C440.625763,640.069763 420.648743,643.961182 398.867310,635.449951 
	C396.284058,634.440430 394.035919,632.565857 390.274261,632.202026 
	C392.953430,638.589233 395.343048,644.546936 397.937775,650.413940 
	C402.388245,660.476807 406.750885,670.588074 409.570282,681.234741 
	C410.641235,685.278870 412.799927,686.031128 416.438507,685.714050 
	C465.058899,681.478271 500.749695,658.784363 521.724731,613.728027 
	C538.461853,577.775085 539.123535,541.174011 529.294739,503.541138 
	C523.314331,480.643280 515.092773,458.424622 509.210083,435.506500 
	C503.164124,411.952240 500.504974,388.333527 507.854309,364.552277 
	C515.405518,340.117584 530.561279,323.483765 557.033630,321.302948 
	C584.277893,319.058533 605.391846,330.916534 620.679016,353.371521 
	C621.521667,354.609314 622.234802,355.934967 623.015503,357.215302 
	C623.789001,358.483917 624.571655,359.747040 625.523560,361.294067 
	C629.293335,358.950073 630.930237,354.897552 634.001648,352.246185 
	C636.953430,349.698151 639.569519,345.270905 643.993225,347.210266 
	C647.791077,348.875275 647.082825,353.545532 647.042419,357.116119 
	C646.784668,379.856415 643.870483,402.281616 638.199524,424.298248 
	C635.597229,434.401154 632.950195,435.189240 625.492737,427.757507 
	C608.904480,411.226410 594.434875,392.967834 582.689697,372.653046 
	C581.180542,370.042786 578.407776,366.838226 580.703552,364.006439 
	C583.025696,361.142120 586.966370,362.662720 590.138672,363.422028 
	C594.010315,364.348785 597.779236,365.704651 601.592529,366.875061 
	C599.859558,360.533112 591.419678,351.922241 582.438965,347.333588 
	C554.831543,333.227600 523.695312,351.400208 522.057739,382.262665 
	C520.885010,404.363739 526.899109,425.129547 532.729248,445.976471 
	C537.302368,462.328674 542.047180,478.632874 546.853394,495.347107 
M344.442352,459.111908 
	C359.498871,467.375854 374.110138,465.301270 387.729156,456.163330 
	C401.319641,447.044525 404.852905,433.402649 401.985840,417.958191 
	C399.144226,402.651062 388.995239,396.200928 373.956726,400.029083 
	C358.380493,403.994110 346.608185,413.328278 338.165436,426.882080 
	C330.344421,439.437744 332.182770,449.363831 344.442352,459.111908 
z"/>
<path fill="#000000" opacity="1.000000" stroke="none" 
	d="
M225.350784,21.087612 
	C229.305649,21.074848 232.802536,21.038322 236.298798,21.069138 
	C242.465637,21.123489 242.999542,21.685751 243.003998,28.048969 
	C243.013901,42.201805 242.947418,56.355190 243.065186,70.507072 
	C243.091019,73.611320 241.958542,78.233109 246.778732,78.391151 
	C252.018967,78.562981 251.013062,73.728638 251.042648,70.477165 
	C251.171478,56.325481 251.081390,42.171886 251.090988,28.019005 
	C251.095535,21.324396 251.304428,21.137526 258.189392,21.110474 
	C261.852478,21.096079 265.516876,21.153637 269.178345,21.073133 
	C272.191803,21.006878 273.998505,22.141037 273.935455,25.378012 
	C273.595276,42.846321 275.016571,60.354374 273.279541,77.780922 
	C271.751160,93.114830 262.711578,100.363823 246.310226,100.181335 
	C230.663422,100.007256 222.016541,92.538864 220.733978,77.413422 
	C219.283279,60.305099 220.278519,43.140312 220.192383,26.000336 
	C220.176758,22.891834 221.341553,20.828072 225.350784,21.087612 
z"/>
<path fill="#000000" opacity="1.000000" stroke="none" 
	d="
M452.847656,45.470551 
	C454.943054,56.481693 455.296936,67.084457 452.116425,77.517738 
	C448.253296,90.190102 439.547760,96.959290 426.299194,98.365311 
	C419.471985,99.089851 412.651794,98.752075 405.828491,98.904015 
	C402.435181,98.979568 400.646301,97.828438 400.666351,93.989677 
	C400.784821,71.326256 400.769073,48.661839 400.700989,25.998049 
	C400.690826,22.610863 401.820526,21.374563 405.378723,21.354673 
	C411.869049,21.318390 418.328339,21.057360 424.832825,21.628712 
	C440.141266,22.973389 448.845642,30.128942 452.847656,45.470551 
M431.409637,51.263374 
	C430.838104,48.859871 430.860535,46.274113 429.394073,44.142570 
	C428.339111,42.609116 427.053223,41.091442 424.978424,41.502258 
	C422.668060,41.959717 423.284607,44.071423 423.274506,45.599068 
	C423.213043,54.881512 423.222870,64.164680 423.267548,73.447327 
	C423.274384,74.870232 422.838074,76.760895 424.615234,77.365891 
	C426.669342,78.065155 428.123474,76.600281 429.114227,75.040092 
	C429.890015,73.818451 430.397400,72.363602 430.745636,70.944069 
	C432.268158,64.737373 431.695587,58.425720 431.409637,51.263374 
z"/>
<path fill="#000000" opacity="1.000000" stroke="none" 
	d="
M507.293732,30.831245 
	C517.126404,48.377705 516.835938,66.288216 509.999817,84.120705 
	C506.018616,94.505989 497.522858,99.935242 486.229553,100.162788 
	C474.741608,100.394257 466.023071,95.230522 461.487244,84.798332 
	C454.380524,68.453270 454.486298,51.613743 461.477539,35.271103 
	C466.247345,24.121267 476.182465,18.874239 488.135864,19.861599 
	C496.039520,20.514448 502.433899,24.022093 507.293732,30.831245 
M491.618103,49.071960 
	C491.526093,48.415321 491.487946,47.745693 491.333099,47.104218 
	C490.518677,43.730255 490.143982,39.518482 485.562195,39.622513 
	C481.057556,39.724789 480.602692,43.801556 480.075226,47.287823 
	C478.851105,55.378792 478.864197,63.477615 480.063385,71.573387 
	C480.583679,75.086075 481.048889,79.212120 485.477997,79.310364 
	C489.862701,79.407623 490.568176,75.264442 491.374542,71.843254 
	C491.600525,70.884514 491.671875,69.870308 491.674805,68.881126 
	C491.693604,62.576580 491.673431,56.271915 491.618103,49.071960 
z"/>
<path fill="#000000" opacity="1.000000" stroke="none" 
	d="
M316.389587,92.360153 
	C306.395020,101.300018 292.525269,102.620316 281.383209,95.953819 
	C279.926453,95.082214 278.338257,94.193886 278.224976,92.348442 
	C277.841248,86.097473 277.694000,79.839928 278.292419,73.802490 
	C280.862152,72.925850 281.982117,74.501518 283.393433,75.189957 
	C285.780212,76.354233 288.096741,77.668594 290.513367,78.764168 
	C293.188141,79.976753 295.868713,79.828598 297.771820,77.426590 
	C299.872986,74.774620 298.410614,72.286125 296.539032,70.276726 
	C292.796326,66.258423 288.800049,62.477150 285.026215,58.486691 
	C281.387848,54.639519 278.973999,50.162189 278.659027,44.735554 
	C277.694214,28.111427 290.530182,17.209202 307.597717,20.167980 
	C307.761688,20.196409 307.924652,20.231056 308.088074,20.262777 
	C319.660889,22.509224 320.233795,23.136501 320.129883,34.738201 
	C320.103607,37.671215 320.778473,40.697102 319.541321,43.526466 
	C317.525421,44.355465 316.353058,42.810635 314.903992,42.175777 
	C312.779053,41.244816 310.714996,40.089386 308.501770,39.470097 
	C306.401764,38.882496 303.981354,38.830776 302.657623,41.033726 
	C301.229370,43.410534 302.298218,45.602856 304.122681,47.296535 
	C307.414825,50.352646 310.959961,53.142555 314.176025,56.273186 
	C325.011200,66.820610 325.865509,79.968185 316.389587,92.360153 
z"/>
<path fill="#000000" opacity="1.000000" stroke="none" 
	d="
M369.981049,40.977005 
	C367.642181,42.373692 365.423004,42.098042 363.301666,41.956642 
	C359.344238,41.692871 358.133392,43.428047 358.174774,47.261257 
	C358.336456,62.238022 358.260254,77.217514 358.244141,92.195961 
	C358.237305,98.560982 357.920288,98.850258 351.403198,98.902031 
	C348.074829,98.928467 344.740021,98.786690 341.419159,98.948112 
	C337.208405,99.152802 335.546021,97.516426 335.607178,93.118835 
	C335.815430,78.143242 335.561829,63.161243 335.769012,48.185623 
	C335.829315,43.827621 334.769562,41.832760 329.979126,41.954102 
	C323.078430,42.128895 322.863342,41.740433 322.951965,34.998779 
	C323.159454,19.214909 320.598419,21.284006 336.587646,21.094233 
	C345.906158,20.983635 355.227417,21.059868 364.547119,21.109335 
	C370.448486,21.140657 371.127106,21.756123 370.995453,27.786858 
	C370.901825,32.078499 371.685211,36.436245 369.981049,40.977005 
z"/>
<path fill="#000000" opacity="1.000000" stroke="none" 
	d="
M579.133301,42.017097 
	C574.549316,42.396610 573.228943,40.320316 573.072327,36.391544 
	C572.463135,21.110857 572.375488,21.110819 587.569458,21.090046 
	C596.899902,21.077288 606.231689,21.169781 615.560059,21.028231 
	C619.546143,20.967745 621.542786,22.411922 621.195801,26.574701 
	C621.071716,28.063625 621.183044,29.572056 621.184570,31.071585 
	C621.193970,40.693501 621.209106,40.816208 611.623291,42.018578 
	C608.152100,42.453972 608.328125,44.680050 608.325073,47.033096 
	C608.305786,61.695179 608.304749,76.357285 608.304260,91.019386 
	C608.304016,98.858604 608.309998,98.861839 600.670105,98.883644 
	C597.837646,98.891724 594.992065,98.706100 592.175659,98.917648 
	C587.475281,99.270699 585.688782,97.429306 585.763977,92.584518 
	C585.994141,77.759438 585.669800,62.925369 585.932434,48.101376 
	C586.019287,43.198917 584.298035,41.337208 579.133301,42.017097 
z"/>
<path fill="#000000" opacity="1.000000" stroke="none" 
	d="
M207.215607,93.161972 
	C199.824478,100.695602 191.374161,101.573990 182.091019,98.537575 
	C179.211227,97.595627 177.668060,95.929459 177.767914,92.707619 
	C177.916351,87.918205 177.806381,83.120773 177.806381,78.613434 
	C180.073227,77.372719 181.129044,78.842018 182.392426,79.450691 
	C186.828781,81.588043 189.832458,80.074684 190.523132,75.119118 
	C190.819931,72.989494 190.691788,70.795570 190.694000,68.630798 
	C190.708145,54.800339 190.872437,40.966724 190.613953,27.141127 
	C190.526627,22.470800 192.248444,20.836895 196.692200,21.059277 
	C200.681107,21.258902 204.687805,21.102604 208.686661,21.103292 
	C211.719879,21.103815 213.247421,22.441593 213.233109,25.653900 
	C213.156586,42.816387 213.321167,59.981636 213.058228,77.140656 
	C212.970718,82.850319 211.213623,88.308838 207.215607,93.161972 
z"/>
<path fill="#000000" opacity="1.000000" stroke="none" 
	d="
M546.754150,28.129406 
	C546.183777,23.279955 547.725708,21.167923 552.496460,21.454039 
	C556.623962,21.701572 560.791504,21.231718 564.942688,21.149651 
	C567.786194,21.093435 569.192383,22.497622 569.189453,25.420261 
	C569.166138,48.530296 569.168762,71.640373 569.191772,94.750412 
	C569.194153,97.174110 568.119324,98.600014 565.702271,98.654510 
	C560.554321,98.770584 555.402710,98.811821 550.253723,98.763191 
	C546.605774,98.728737 546.722717,96.048996 546.725647,93.453545 
	C546.748779,73.335861 546.749023,53.218151 546.756226,33.100452 
	C546.756775,31.604088 546.756470,30.107721 546.754150,28.129406 
z"/>
<path fill="#000000" opacity="1.000000" stroke="none" 
	d="
M439.986908,160.948990 
	C440.145203,164.265121 440.536926,167.571457 439.661163,170.874130 
	C438.619171,174.803741 436.836334,178.060608 432.524963,179.006821 
	C428.172729,179.961990 425.184845,177.797974 422.838928,174.402222 
	C422.475830,173.876602 422.104980,173.356293 421.603027,172.641785 
	C420.402954,175.006500 421.230103,178.390778 417.513824,178.823532 
	C414.125122,179.218170 412.254852,177.541046 411.284332,174.125671 
	C408.828339,180.213684 397.916565,180.951630 393.441040,175.770645 
	C392.526642,178.891739 390.203583,179.319931 387.521545,178.792068 
	C384.593597,178.215820 384.826019,175.804916 384.810059,173.654861 
	C384.774292,168.829590 384.752441,164.002884 384.837250,159.178741 
	C384.870758,157.273224 384.312225,154.857803 386.877533,154.107391 
	C389.394012,153.371262 391.878906,153.509506 393.327698,156.279938 
	C398.941772,152.012054 409.371399,152.974182 412.662018,158.493561 
	C413.086945,155.462234 414.245697,153.516357 417.384430,153.901855 
	C421.924530,154.459473 420.317413,158.377777 421.504425,161.501236 
	C423.184814,156.494308 426.073059,153.467361 431.315338,153.700333 
	C435.763641,153.898010 438.222778,156.508911 439.801056,160.719894 
	C439.999573,160.983032 439.986908,160.948990 439.986908,160.948990 
M400.197296,161.662674 
	C397.193512,166.700851 400.744812,170.621246 402.484772,175.993652 
	C402.484772,169.219345 402.484772,163.592346 402.484772,156.718582 
	C401.425232,158.966965 400.937866,160.001205 400.197296,161.662674 
M429.610474,169.139832 
	C430.143799,170.173340 430.963226,171.671326 431.633820,169.518021 
	C432.372559,167.145813 432.330200,164.548920 431.147705,161.844452 
	C428.856384,163.996445 429.277679,166.277771 429.610474,169.139832 
z"/>
<path fill="#000000" opacity="1.000000" stroke="none" 
	d="
M374.326721,226.992294 
	C369.841492,236.073639 357.536102,240.860123 348.136505,237.625458 
	C346.112335,236.928894 345.760803,235.517059 345.757233,233.767532 
	C345.732941,221.944489 345.759705,210.121155 345.681580,198.298508 
	C345.663666,195.586472 346.846527,194.324646 349.479950,194.161545 
	C354.495941,193.850861 359.493805,194.051605 364.343750,195.364182 
	C369.386230,196.728851 372.592285,200.271820 374.293518,205.092392 
	C376.809753,212.222244 377.048523,219.422806 374.326721,226.992294 
M358.962372,211.811676 
	C359.322052,216.152359 358.024597,220.607864 359.430542,225.188568 
	C364.321899,221.335175 364.095245,209.423462 359.501099,206.594925 
	C358.586273,207.960648 359.060547,209.496841 358.962372,211.811676 
z"/>
<path fill="#000000" opacity="1.000000" stroke="none" 
	d="
M403.538727,197.432770 
	C410.457672,206.360138 411.530304,221.943359 406.117371,231.297287 
	C400.823303,240.445847 387.477570,241.140442 381.198517,232.594208 
	C375.454712,224.776489 375.122986,208.268600 380.547394,200.192764 
	C385.748138,192.449921 394.899017,191.233109 403.538727,197.432770 
M390.163513,219.159439 
	C390.189148,219.821060 390.168610,220.488327 390.248932,221.143234 
	C390.506836,223.245422 390.373810,225.976746 393.231689,226.050186 
	C395.770538,226.115448 396.057648,223.447357 396.312744,221.594269 
	C396.900330,217.325516 396.916779,213.016510 395.960663,208.762222 
	C395.628784,207.285507 395.337555,205.577255 393.464050,205.542007 
	C391.465607,205.504410 390.542725,207.079330 390.416656,208.835068 
	C390.191803,211.966660 390.217773,215.116272 390.163513,219.159439 
z"/>
<path fill="#000000" opacity="1.000000" stroke="none" 
	d="
M309.461426,134.219925 
	C302.830566,143.175827 294.465973,141.176239 289.217468,129.765182 
	C284.718964,138.018906 280.896149,140.055573 272.057983,139.188934 
	C269.693481,138.957077 268.252625,138.123337 268.238678,135.608200 
	C268.199951,128.620773 268.206879,121.633018 268.145813,114.645828 
	C268.112091,110.788940 270.001556,109.650726 273.750366,109.565422 
	C280.735443,109.406479 286.364380,110.974274 288.820801,119.278214 
	C289.839111,117.258018 290.449829,115.856750 291.221832,114.550842 
	C293.435242,110.806725 296.698639,108.748421 301.110687,108.983398 
	C305.374512,109.210480 308.316376,111.614456 309.852936,115.436104 
	C312.313782,121.556763 312.270203,127.760269 309.461426,134.219925 
M302.067261,125.256744 
	C301.798859,122.767693 302.740265,120.010353 300.591095,117.814514 
	C297.368317,121.383171 297.439148,127.198341 300.676208,130.104736 
	C302.040009,129.066528 301.888336,127.517212 302.067261,125.256744 
M279.652191,120.872231 
	C279.364075,120.269073 278.884583,118.769714 278.343842,120.137169 
	C277.280029,122.827309 276.772125,125.798088 278.905701,129.027145 
	C280.257111,126.343964 279.851044,123.917717 279.652191,120.872231 
z"/>
<path fill="#000000" opacity="1.000000" stroke="none" 
	d="
M400.154785,108.994125 
	C401.535858,109.119926 402.563629,109.132156 403.491913,109.442261 
	C408.148773,110.997948 411.107971,115.285507 411.271362,121.088020 
	C411.458374,127.730728 412.293182,134.848709 404.933411,138.628555 
	C398.476776,141.944565 392.944550,138.671906 389.165588,128.949814 
	C386.600159,137.735901 380.537354,139.772018 372.909332,139.245056 
	C370.105255,139.051346 368.582397,138.204559 368.624390,135.127274 
	C368.722015,127.974030 368.674225,120.818573 368.654480,113.664093 
	C368.648193,111.388985 369.290466,110.003403 371.939484,109.668343 
	C380.924103,108.531937 385.314331,110.836952 389.335846,119.753426 
	C390.775269,113.719231 393.799866,109.786934 400.154785,108.994125 
M401.064392,118.160095 
	C397.386505,120.346474 397.145355,126.462105 400.788391,130.268494 
	C403.590912,126.480545 402.866241,122.591866 401.064392,118.160095 
M378.608368,119.692154 
	C377.636200,122.629456 377.547028,125.520226 378.921143,128.343491 
	C380.005646,125.482780 380.319885,122.630905 378.608368,119.692154 
z"/>
<path fill="#000000" opacity="1.000000" stroke="none" 
	d="
M509.254944,114.064896 
	C512.287231,119.549004 511.787567,125.088783 510.914307,130.479141 
	C510.015808,136.025375 506.203369,139.300110 501.250946,139.737625 
	C496.509735,140.156509 492.458801,137.239182 490.404999,131.884628 
	C490.051544,130.963074 489.829987,129.990906 489.429138,128.644516 
	C487.944519,132.191559 486.719910,135.586456 483.366821,137.484558 
	C480.161133,139.299194 476.681976,139.155289 473.187744,139.231277 
	C470.118683,139.298019 468.577484,138.188568 468.630035,134.897614 
	C468.741425,127.921127 468.731995,120.940384 468.623016,113.963707 
	C468.572174,110.709206 470.063446,109.690971 473.152557,109.582184 
	C482.380829,109.257187 485.268555,110.865288 489.393341,119.561028 
	C490.956024,114.098625 493.471344,109.782722 499.315674,109.036201 
	C503.477753,108.504555 506.780273,110.143150 509.254944,114.064896 
M500.592651,117.964340 
	C497.359589,121.742249 497.413483,126.947945 501.098114,130.529831 
	C503.083618,126.256523 503.103546,122.257622 500.592651,117.964340 
M477.847900,129.350372 
	C481.769318,126.394981 479.578491,122.943840 478.915283,119.613861 
	C477.369537,122.575356 477.307556,125.681885 477.847900,129.350372 
z"/>
<path fill="#000000" opacity="1.000000" stroke="none" 
	d="
M631.610107,172.512390 
	C633.354370,172.962036 633.948547,171.334351 635.232361,170.983215 
	C637.033508,170.490601 638.536743,170.858383 639.727173,172.282333 
	C640.935242,173.727386 640.989319,175.323837 640.073059,176.926208 
	C639.160950,178.521347 637.430237,179.804062 635.976746,178.946350 
	C633.504089,177.487198 631.495605,178.260605 629.170227,178.906448 
	C626.353088,179.688858 624.624390,177.705353 623.465332,175.426437 
	C617.461975,180.394974 608.261841,180.355469 604.314941,175.415527 
	C603.214783,178.374649 601.203491,179.652603 598.223511,178.630829 
	C595.469727,177.686584 595.942749,175.240494 595.911438,173.152283 
	C595.846497,168.823151 595.849121,164.489990 595.967834,160.162430 
	C596.028625,157.946213 595.269836,155.143951 598.256348,154.194183 
	C601.278137,153.233185 603.891846,153.952209 605.428528,157.998352 
	C606.604858,154.996170 608.182983,153.277252 611.050781,154.065857 
	C614.339966,154.970367 613.184143,157.759323 613.369080,159.898560 
	C613.712036,163.865158 613.898376,167.845306 614.230896,173.100372 
	C615.524902,167.732147 616.638245,163.615112 617.483704,159.443802 
	C618.130554,156.252945 618.977661,153.821274 623.046265,153.797760 
	C627.359924,153.772858 627.643921,156.747894 628.338257,159.684402 
	C629.332764,163.890472 630.386658,168.082489 631.610107,172.512390 
z"/>
<path fill="#000000" opacity="1.000000" stroke="none" 
	d="
M578.531067,154.458694 
	C581.817627,153.505447 584.566467,153.411087 586.425049,157.142181 
	C587.790588,153.923767 590.013794,153.493210 592.441528,154.157364 
	C595.244934,154.924286 594.822510,157.470032 594.887512,159.545746 
	C595.022827,163.870163 595.046387,168.200912 594.988037,172.527359 
	C594.957947,174.764755 595.675110,177.546738 592.867310,178.623703 
	C590.164307,179.660416 587.626221,178.922394 585.803223,176.496231 
	C581.200317,180.222076 572.483215,179.869370 568.052002,175.830688 
	C566.370117,175.758606 566.247803,177.632782 565.078308,178.214920 
	C563.333069,179.083633 561.520447,179.353760 559.850586,178.266586 
	C558.248657,177.223633 558.949951,175.605331 559.257751,174.168503 
	C560.372803,168.963562 561.629578,163.785110 562.586853,158.551651 
	C563.202698,155.184784 564.834351,153.731186 568.330994,153.779739 
	C571.934753,153.829773 572.676514,156.094376 573.267517,158.871384 
	C574.192200,163.215988 575.236816,167.535065 576.424255,172.708527 
	C577.836243,166.131012 575.541321,160.186661 578.531067,154.458694 
z"/>
<path fill="#000000" opacity="1.000000" stroke="none" 
	d="
M462.068604,220.008850 
	C462.044952,224.669571 461.872375,228.839691 462.039032,232.996231 
	C462.244690,238.124268 458.834137,237.979401 455.363129,237.907990 
	C452.008728,237.838974 448.522339,238.287552 448.679138,233.017654 
	C448.901978,225.529160 448.663269,218.027893 448.710175,210.532654 
	C448.725525,208.079254 448.306793,206.455475 445.304810,206.174545 
	C439.515961,205.632812 442.214020,200.973755 441.755951,197.979370 
	C441.265778,194.774796 443.548035,194.051971 446.152283,194.041626 
	C452.314880,194.017120 458.477692,194.021805 464.640320,194.040054 
	C467.082214,194.047272 469.108215,194.886032 468.966827,197.688156 
	C468.818970,200.618744 470.558868,205.086426 466.500122,205.832275 
	C461.846436,206.687424 461.973633,209.244797 462.053009,212.516541 
	C462.109589,214.847198 462.067932,217.180252 462.068604,220.008850 
z"/>
<path fill="#000000" opacity="1.000000" stroke="none" 
	d="
M357.239197,169.585449 
	C355.613586,176.535141 352.275146,179.624329 347.318359,179.182663 
	C341.269745,178.643692 338.895630,174.284302 338.548920,163.080017 
	C335.674194,166.810150 335.591187,166.807037 335.313538,174.219971 
	C335.212402,176.920120 334.597992,178.750488 331.493927,178.879135 
	C328.232269,179.014313 327.398438,177.070999 327.705261,174.409637 
	C328.376190,168.590225 325.376465,163.779602 323.540741,158.662888 
	C322.430664,155.568756 322.890106,153.391998 326.534515,153.986771 
	C329.781616,154.516678 332.811005,154.837082 336.059326,153.966736 
	C337.948273,153.460602 340.097595,153.817108 340.592010,156.460083 
	C350.069763,150.731598 357.013153,154.490585 357.321014,165.150421 
	C357.359436,166.480621 357.285309,167.814102 357.239197,169.585449 
M348.848236,170.526764 
	C349.942993,167.561905 350.362000,164.646698 347.906738,160.846344 
	C346.310669,164.944794 344.777863,167.964249 348.848236,170.526764 
z"/>
<path fill="#000000" opacity="1.000000" stroke="none" 
	d="
M427.898895,236.956116 
	C425.922729,230.966644 427.005920,225.134552 426.836700,219.364532 
	C426.637085,212.557632 426.962616,205.735748 426.782684,198.927704 
	C426.646240,193.766785 430.072601,194.056046 433.480408,194.023102 
	C436.938141,193.989700 440.290161,193.815201 440.218414,198.913849 
	C440.066437,209.713287 440.147339,220.515823 440.093933,231.316910 
	C440.063721,237.430801 439.621063,237.857483 433.640381,237.890411 
	C431.818970,237.900452 429.973450,238.023041 427.898895,236.956116 
z"/>
<path fill="#000000" opacity="1.000000" stroke="none" 
	d="
M558.481201,167.405441 
	C558.018005,169.946564 557.586182,172.061478 557.252502,174.191772 
	C556.871582,176.623444 556.301514,178.764801 553.215454,178.955002 
	C550.023254,179.151764 548.784241,177.321075 548.243591,174.572998 
	C548.119995,173.944885 547.818115,173.351837 547.590271,172.720520 
	C546.506653,173.173981 546.521240,174.092010 546.363403,174.853500 
	C545.893127,177.123367 545.157654,178.997528 542.299194,178.964203 
	C539.402405,178.930420 538.251282,177.316833 537.763733,174.691757 
	C536.855225,169.801010 535.627808,164.964722 534.862305,160.054443 
	C534.531433,157.931793 532.575684,154.797791 536.582825,153.965103 
	C539.725037,153.312149 542.278931,154.219147 542.589661,158.419647 
	C543.681396,155.833084 544.546448,153.427307 547.848816,153.983109 
	C551.524292,154.601715 550.741211,157.921005 551.782532,160.391693 
	C553.126343,159.663376 552.682861,158.400406 552.800781,157.452866 
	C553.224243,154.051010 555.518433,153.551239 558.237244,153.984604 
	C561.247375,154.464371 560.484070,156.761871 560.159119,158.681870 
	C559.688721,161.460754 559.096191,164.218979 558.481201,167.405441 
z"/>
<path fill="#000000" opacity="1.000000" stroke="none" 
	d="
M246.233368,169.063751 
	C246.276001,171.367157 246.272461,173.195541 246.350052,175.020477 
	C246.451447,177.404541 245.598358,178.881638 242.976212,178.834015 
	C240.355240,178.786423 239.591660,177.216034 239.665573,174.889023 
	C239.712936,173.398407 239.674469,171.905060 239.674469,170.030640 
	C238.219070,171.473434 238.506516,173.063721 238.330292,174.478821 
	C238.046112,176.760910 237.601776,178.871552 234.661697,178.849670 
	C231.774475,178.828186 231.253448,176.689011 230.906464,174.460648 
	C230.783844,173.673218 230.739075,172.873688 230.249725,172.096619 
	C230.153214,173.403946 230.109451,174.717789 229.948578,176.017151 
	C229.663223,178.321671 228.098999,178.967148 226.035477,178.883957 
	C223.873001,178.796799 222.560425,177.832626 222.702972,175.503418 
	C223.067886,169.540863 223.437027,163.578339 223.855453,157.619385 
	C224.041046,154.976456 225.645370,153.912125 228.192352,153.859955 
	C230.660629,153.809402 232.928604,153.935898 233.561417,156.983719 
	C233.829636,158.275604 234.135742,159.559647 234.601440,161.635315 
	C235.545090,157.415985 235.736145,153.232605 241.219406,153.801559 
	C243.826019,154.072037 245.177719,154.982025 245.333359,157.674271 
	C245.543945,161.316895 245.918869,164.950012 246.233368,169.063751 
z"/>
<path fill="#000000" opacity="1.000000" stroke="none" 
	d="
M440.010864,160.996643 
	C439.501801,154.723679 440.730255,152.971832 444.741699,154.060272 
	C447.393311,154.779724 447.125122,157.343292 448.376221,159.868515 
	C449.064117,156.838791 449.187439,154.185043 452.448639,153.887833 
	C455.597870,153.600861 456.255127,155.890106 457.256378,158.536560 
	C457.873871,157.245621 458.205139,156.238586 458.784729,155.404022 
	C460.177032,153.399231 462.296265,153.651077 464.195374,154.188232 
	C466.369202,154.803101 465.931122,156.632004 465.590424,158.320740 
	C464.476013,163.844696 463.343323,169.366226 462.341064,174.910995 
	C461.904022,177.328888 460.952789,178.899261 458.226746,178.951843 
	C455.286011,179.008591 454.082703,177.417831 453.735565,174.742645 
	C453.544067,173.267166 453.177307,171.814423 452.702332,169.399643 
	C452.223267,171.858978 451.889984,173.431061 451.615051,175.013275 
	C451.191833,177.448654 449.975464,178.900589 447.305328,178.875641 
	C444.805023,178.852249 443.871063,177.375961 443.406372,175.194611 
	C442.439697,170.656937 441.380768,166.138947 440.173340,161.280914 
	C439.986908,160.948990 439.999573,160.983032 440.010864,160.996643 
z"/>
<path fill="#000000" opacity="1.000000" stroke="none" 
	d="
M624.994568,75.786346 
	C632.850952,74.717064 638.955872,78.506432 640.221130,84.905273 
	C641.570862,91.730804 637.920288,98.149109 631.716003,99.858727 
	C625.263855,101.636665 618.800354,98.243362 616.491699,91.865997 
	C614.199219,85.533356 617.277954,79.483551 624.994568,75.786346 
z"/>
<path fill="#000000" opacity="1.000000" stroke="none" 
	d="
M306.029938,177.984283 
	C301.988983,179.797562 298.574646,179.660934 296.342010,173.868835 
	C296.020142,177.711243 294.536926,179.237473 291.499390,178.870255 
	C288.085724,178.457550 288.439301,175.767838 288.377197,173.563370 
	C288.264984,169.578690 288.495575,165.585617 288.494629,161.596085 
	C288.493958,158.742020 287.047333,155.238693 291.140686,154.080261 
	C295.304565,152.901871 297.327545,155.341064 298.192719,159.530426 
	C298.433075,156.560989 298.332855,153.757187 302.255493,153.914597 
	C306.295593,154.076736 306.002838,156.981140 306.028656,159.629349 
	C306.085358,165.456757 306.038239,171.285172 306.017883,177.565277 
	C306.002289,178.017395 306.029938,177.984283 306.029938,177.984283 
z"/>
<path fill="#000000" opacity="1.000000" stroke="none" 
	d="
M365.610168,155.704132 
	C366.011749,159.668488 366.220551,163.234039 366.429352,166.799576 
	C366.576202,166.798584 366.723083,166.797592 366.869934,166.796600 
	C367.085999,163.673126 367.334229,160.551437 367.508545,157.425613 
	C367.665833,154.605148 369.307556,153.796265 371.863251,153.889572 
	C374.431915,153.983337 375.347290,155.339462 375.316833,157.739258 
	C375.259705,162.236832 375.441681,166.743439 375.220428,171.231323 
	C374.976776,176.172577 372.054504,178.975403 367.365540,179.237289 
	C362.395721,179.514832 358.588104,176.963730 358.084778,172.142822 
	C357.568634,167.199249 357.623444,162.151871 357.930634,157.180954 
	C358.164124,153.402954 360.769012,152.867737 365.610168,155.704132 
z"/>
<path fill="#000000" opacity="1.000000" stroke="none" 
	d="
M508.652191,158.251343 
	C508.516479,154.254562 510.708496,153.651596 513.551636,153.913101 
	C516.656738,154.198715 516.458496,156.493256 516.486084,158.710205 
	C516.528931,162.154831 515.941162,165.634476 517.986145,169.098572 
	C517.986145,165.642105 517.959045,162.185379 517.994751,158.729294 
	C518.023071,155.986267 518.635681,153.807724 522.143616,153.851562 
	C525.650696,153.895401 526.191406,156.061600 526.158081,158.825500 
	C526.108093,162.976807 526.366577,167.159561 525.941833,171.271942 
	C525.350586,176.996399 522.070862,179.551697 516.542969,179.255829 
	C511.619781,178.992310 508.882782,175.858292 508.742401,170.182831 
	C508.647919,166.363113 508.676788,162.540359 508.652191,158.251343 
z"/>
<path fill="#000000" opacity="1.000000" stroke="none" 
	d="
M490.977600,157.016235 
	C499.781769,150.647354 506.571045,153.525909 507.866058,164.371399 
	C508.493500,169.626358 507.938965,174.798569 502.902985,178.023224 
	C500.020599,179.868881 496.743408,179.890442 494.013184,177.785736 
	C489.304352,174.155670 488.524811,168.973450 489.313538,163.467346 
	C489.592407,161.520493 490.352661,159.642593 490.947601,157.358276 
	C491.002075,156.983322 490.977600,157.016235 490.977600,157.016235 
M499.781525,163.455414 
	C499.461823,162.467377 498.578644,161.184326 497.957520,162.551666 
	C496.741241,165.229324 496.298218,168.224472 498.635498,171.124664 
	C500.530060,168.735016 499.779816,166.387772 499.781525,163.455414 
z"/>
<path fill="#000000" opacity="1.000000" stroke="none" 
	d="
M287.105042,161.310654 
	C287.712250,164.837738 287.813446,168.007660 287.210358,171.105789 
	C286.339447,175.579605 283.767944,178.695084 279.010956,179.149261 
	C274.400604,179.589447 271.553619,177.047531 269.957672,172.906387 
	C268.734680,169.733002 268.369965,166.429382 269.084900,163.132217 
	C270.064514,158.614426 271.572876,154.358109 277.149139,153.749924 
	C282.573700,153.158279 285.435974,156.175217 287.105042,161.310654 
M279.599152,169.323380 
	C279.546021,166.843750 280.593933,164.159180 278.072845,161.474640 
	C276.614563,164.625183 276.864227,167.373932 277.564423,170.044800 
	C277.842102,171.104065 278.811493,170.800232 279.599152,169.323380 
z"/>
<path fill="#000000" opacity="1.000000" stroke="none" 
	d="
M470.831482,195.333908 
	C472.914581,189.631516 477.338959,192.115723 480.717529,192.194656 
	C484.108063,192.273865 483.261383,195.508560 483.260101,197.686768 
	C483.256378,204.012604 482.930115,210.342178 483.067993,216.662918 
	C483.170532,221.363434 480.633179,222.047058 476.745819,222.080368 
	C472.829498,222.113922 471.527313,220.591232 471.528442,216.747665 
	C471.530487,209.764328 471.074310,202.780853 470.831482,195.333908 
z"/>
<path fill="#000000" opacity="1.000000" stroke="none" 
	d="
M213.051254,179.227264 
	C207.255508,178.724304 204.791519,175.140488 204.057510,170.363480 
	C203.210709,164.852371 203.126877,159.149002 208.096634,155.296967 
	C211.412613,152.726746 215.466965,152.706635 218.651474,155.607101 
	C223.622116,160.134399 222.734940,166.230667 221.749252,171.937057 
	C221.009048,176.222183 218.020645,178.842560 213.051254,179.227264 
M211.751877,163.000534 
	C211.444061,165.797821 210.300308,168.762146 213.306091,171.291489 
	C215.331055,168.210205 214.826813,165.285004 213.979630,162.423721 
	C213.545044,160.955948 212.675323,161.250076 211.751877,163.000534 
z"/>
<path fill="#000000" opacity="1.000000" stroke="none" 
	d="
M333.265350,110.791138 
	C338.280243,108.655701 343.293671,109.844521 348.198944,109.468803 
	C349.791321,109.346832 351.097931,110.380821 351.128632,112.218819 
	C351.163300,114.294510 352.029663,117.040367 349.319000,117.833107 
	C346.134979,118.764252 346.369446,120.951477 346.388947,123.283897 
	C346.418152,126.775436 346.294342,130.279739 346.555542,133.754562 
	C346.806427,137.092606 346.266418,139.201950 342.211456,139.245132 
	C338.289612,139.286896 336.804718,137.633362 336.954224,133.862076 
	C337.112244,129.875946 337.043152,125.880684 337.066010,121.889366 
	C337.073425,120.593704 337.512207,118.945625 335.844971,118.461517 
	C331.554138,117.215584 332.779236,114.032776 333.265350,110.791138 
z"/>
<path fill="#000000" opacity="1.000000" stroke="none" 
	d="
M447.917969,109.597763 
	C452.066071,111.690262 452.751923,116.317001 449.244080,117.842148 
	C446.548065,119.014305 446.426453,120.729820 446.435577,122.907204 
	C446.450836,126.554787 446.334564,130.217712 446.630768,133.845001 
	C446.906677,137.223679 446.325195,139.213699 442.289154,139.261230 
	C438.600464,139.304642 437.180054,138.068832 437.497009,134.328537 
	C437.790253,130.868073 437.587219,127.365974 437.612762,123.882286 
	C437.632202,121.227989 437.871460,118.802200 434.326538,117.643997 
	C431.832977,116.829300 432.706146,113.932396 432.915405,111.878830 
	C433.167328,109.406227 435.143402,109.423950 437.061401,109.466827 
	C440.543030,109.544655 444.026276,109.550041 447.917969,109.597763 
z"/>
<path fill="#000000" opacity="1.000000" stroke="none" 
	d="
M537.641785,130.948105 
	C537.633362,127.636406 537.610657,124.808693 537.619446,121.981071 
	C537.624939,120.218155 537.405151,118.728706 535.288147,118.158661 
	C531.819763,117.224731 532.654297,114.332458 532.880737,111.972321 
	C533.157410,109.087845 535.541504,109.520592 537.501770,109.564766 
	C540.817932,109.639496 544.108643,108.836304 547.453430,109.473930 
	C549.376099,109.840462 551.150574,110.134941 551.188354,112.579063 
	C551.220642,114.664749 551.964233,117.233803 549.055908,117.986794 
	C546.406494,118.672737 546.352600,120.507538 546.362671,122.581909 
	C546.381165,126.407501 546.291321,130.235168 546.388733,134.058350 
	C546.465210,137.058929 546.048401,139.192688 542.195190,139.247269 
	C538.188110,139.304062 537.356262,137.252289 537.626831,133.926361 
	C537.694031,133.100037 537.639404,132.263809 537.641785,130.948105 
z"/>
<path fill="#000000" opacity="1.000000" stroke="none" 
	d="
M258.987305,171.736847 
	C260.816986,173.870972 261.036285,176.480331 259.374298,177.780899 
	C256.633514,179.925644 253.029663,179.241501 249.779922,178.597992 
	C247.386047,178.123962 247.690643,175.939880 247.629242,174.145721 
	C247.453537,169.011871 247.224747,163.877472 247.195129,158.742249 
	C247.183899,156.791687 247.269669,154.361649 249.908142,154.119980 
	C253.133438,153.824539 257.146851,152.425995 259.393860,155.084473 
	C261.758484,157.882126 260.240570,160.715485 255.334442,161.660355 
	C257.975098,162.926956 260.010162,163.604050 259.988983,166.292938 
	C259.968658,168.879761 257.645996,169.062195 256.067627,170.449509 
	C257.179138,170.922470 257.927429,171.240875 258.987305,171.736847 
z"/>
<path fill="#000000" opacity="1.000000" stroke="none" 
	d="
M491.011353,156.964752 
	C488.102478,162.232040 485.788116,167.686005 486.034790,173.912643 
	C486.143341,176.653702 485.628326,178.913239 482.075012,178.916595 
	C478.617218,178.919861 477.747375,176.795883 477.984863,174.005493 
	C478.414185,168.961273 476.362213,164.576828 474.711945,160.054047 
	C474.103119,158.385376 472.954773,156.784714 473.612762,154.846603 
	C478.751770,153.395813 484.003632,155.404480 489.143768,154.151352 
	C490.058807,153.928253 490.758636,155.148331 490.939209,156.628159 
	C490.977600,157.016235 491.002075,156.983322 491.011353,156.964752 
z"/>
<path fill="#000000" opacity="1.000000" stroke="none" 
	d="
M422.988159,111.548813 
	C429.058990,107.668846 432.051819,109.042847 432.107666,115.335014 
	C432.163849,121.665932 432.064606,127.998108 432.099823,134.329376 
	C432.117737,137.546860 430.953552,139.238831 427.404816,139.235413 
	C423.955963,139.232101 422.640350,137.878662 422.716095,134.465118 
	C422.882324,126.971764 422.829254,119.473557 422.988159,111.548813 
z"/>
<path fill="#000000" opacity="1.000000" stroke="none" 
	d="
M532.101196,119.062225 
	C532.084290,124.379028 532.017151,129.204956 532.067078,134.029663 
	C532.101868,137.390381 531.071411,139.326126 527.191711,139.243683 
	C523.546692,139.166229 522.695374,137.349625 522.746277,134.188248 
	C522.850708,127.700333 522.879089,121.208321 522.767151,114.720963 
	C522.707581,111.267143 523.762268,109.522751 527.607544,109.571892 
	C531.281921,109.618843 532.213928,111.459389 532.123108,114.577713 
	C532.084351,115.907845 532.106445,117.239746 532.101196,119.062225 
z"/>
<path fill="#000000" opacity="1.000000" stroke="none" 
	d="
M329.680969,109.834206 
	C331.548126,110.596039 331.877075,111.926498 331.889496,113.261589 
	C331.957733,120.584137 331.969879,127.907425 331.957825,135.230392 
	C331.952271,138.617172 329.800232,139.237823 326.928436,139.198853 
	C324.001801,139.159134 322.706573,137.935394 322.741638,134.969666 
	C322.816437,128.644760 322.720276,122.318031 322.736450,115.992165 
	C322.752350,109.768150 322.877991,109.669540 329.680969,109.834206 
z"/>
<path fill="#000000" opacity="1.000000" stroke="none" 
	d="
M200.818115,160.546722 
	C195.806412,164.282776 195.973663,169.694824 201.079941,171.766632 
	C203.584488,172.782822 203.884460,174.463699 203.653152,176.457062 
	C203.387466,178.746658 201.483871,179.143112 199.527695,179.201584 
	C197.253937,179.269531 195.286514,178.495544 193.550858,177.060837 
	C187.802887,172.309540 187.634491,160.919037 193.212677,155.943008 
	C195.361618,154.026031 197.843201,153.467575 200.634583,153.789734 
	C202.377045,153.990829 203.400681,154.934250 203.642090,156.605896 
	C203.923416,158.553772 203.832870,160.384659 200.818115,160.546722 
z"/>
<path fill="#000000" opacity="1.000000" stroke="none" 
	d="
M552.134277,111.269867 
	C553.093567,107.091858 556.089050,107.896469 558.594543,108.145691 
	C561.311096,108.415924 561.199097,110.709023 561.168091,112.715004 
	C561.111938,116.348419 561.072693,119.985085 560.876831,123.612335 
	C560.735901,126.222038 560.213867,128.441162 556.647949,128.397156 
	C553.087708,128.353226 552.700134,126.321579 552.643677,123.557472 
	C552.562805,119.600677 552.294556,115.647705 552.134277,111.269867 
z"/>
<path fill="#000000" opacity="1.000000" stroke="none" 
	d="
M482.850891,227.472992 
	C484.939148,233.146606 483.565033,237.048462 479.254150,238.195419 
	C475.665375,239.150284 472.675354,238.151566 470.865540,234.747070 
	C469.163116,231.544601 469.787292,228.495667 472.519379,226.291367 
	C475.992340,223.489334 479.516235,223.835403 482.850891,227.472992 
z"/>
<path fill="#000000" opacity="1.000000" stroke="none" 
	d="
M351.797394,130.737732 
	C353.802795,130.611832 355.480133,130.105057 357.529572,131.491714 
	C356.682281,136.004288 354.580872,140.242538 352.264648,144.347458 
	C351.341949,145.982742 349.438629,146.012192 347.771881,145.487656 
	C345.783142,144.861786 346.003021,143.196075 346.574829,141.782211 
	C348.074677,138.073471 347.279602,133.335648 351.797394,130.737732 
z"/>
<path fill="#000000" opacity="1.000000" stroke="none" 
	d="
M447.706421,137.725632 
	C450.043518,130.138489 450.441193,129.878906 457.566284,131.478897 
	C456.719238,136.043533 454.653564,140.138306 452.456207,144.120819 
	C451.451630,145.941544 449.399231,146.103409 447.562012,145.347672 
	C445.661804,144.566025 446.268311,142.898880 446.608917,141.460312 
	C446.876556,140.329758 447.280701,139.231506 447.706421,137.725632 
z"/>
<path fill="#000000" opacity="1.000000" stroke="none" 
	d="
M305.993164,178.037109 
	C307.505646,175.750275 306.752136,171.741821 311.015411,171.480453 
	C314.037811,171.295135 315.727570,172.004456 314.149963,175.424911 
	C313.382843,177.088150 312.672943,178.777893 311.945221,180.459152 
	C310.971741,182.708313 309.751770,185.019089 306.849609,183.970764 
	C304.085938,182.972504 305.976562,180.546860 305.965363,178.359619 
	C306.029938,177.984283 306.002289,178.017395 305.993164,178.037109 
z"/>
<path fill="#000000" opacity="1.000000" stroke="none" 
	d="
M556.072144,129.909973 
	C559.879578,130.070007 561.504822,131.974304 561.366150,135.308319 
	C561.262024,137.812759 559.686340,139.239197 557.309509,139.487289 
	C554.713257,139.758255 552.779907,138.480576 552.081909,135.965668 
	C551.218201,132.853806 552.844604,130.985901 556.072144,129.909973 
z"/>
<path fill="#000000" opacity="1.000000" stroke="none" 
	d="
M373.172668,449.741974 
	C367.220367,449.266266 362.758453,447.189087 360.992462,441.444092 
	C359.126160,435.372650 361.806946,427.600281 366.977570,423.591888 
	C371.979706,419.713989 377.489960,419.622742 382.940918,422.074768 
	C387.767120,424.245697 390.073730,430.228851 389.220428,436.634216 
	C388.404572,442.758911 383.869568,447.904694 378.010742,449.228180 
	C376.563477,449.555115 375.053680,449.605133 373.172668,449.741974 
z"/>
</svg>